<svg width="500" height="350" viewBox="0 0 500 350" fill="none" xmlns="http://www.w3.org/2000/svg">
<path d="M288.927 312.439H80.4498V310.996H287.427V241.02H97.9758L88.7725 222.575L90.1254 221.951L98.9196 239.577H288.927V312.439Z" fill="#2F2E41" fill-opacity="0.3"/>
<path d="M108.131 348.293C116.731 348.293 123.702 341.413 123.702 332.927C123.702 324.441 116.731 317.561 108.131 317.561C99.532 317.561 92.5606 324.441 92.5606 332.927C92.5606 341.413 99.532 348.293 108.131 348.293Z" fill="#3F3D56" fill-opacity="0.3"/>
<path d="M263.408 348.293C272.247 348.293 279.412 341.413 279.412 332.927C279.412 324.441 272.247 317.561 263.408 317.561C254.57 317.561 247.405 324.441 247.405 332.927C247.405 341.413 254.57 348.293 263.408 348.293Z" fill="#3F3D56" fill-opacity="0.3"/>
<path d="M311.817 216.829H76.8031L25.9516 57.1951H364.187L363.879 58.1343L311.817 216.829ZM77.9158 215.385H310.715L362.136 58.6398H27.9846L77.9158 215.385Z" fill="#2F2E41" fill-opacity="0.3"/>
<path d="M368.232 42.6829L366.782 42.3082L376.68 5.97561H434.256V7.43682H377.834L368.232 42.6829Z" fill="#2F2E41" fill-opacity="0.3"/>
<path d="M346.886 105H42.3875V106.707H346.886V105Z" fill="#2F2E41" fill-opacity="0.3"/>
<path d="M329.585 158.78H58.8235V160.488H329.585V158.78Z" fill="#2F2E41" fill-opacity="0.3"/>
<path d="M195.502 57.1951H193.772V215.976H195.502V57.1951Z" fill="#2F2E41" fill-opacity="0.3"/>
<path d="M262.878 57.4881L252.09 216.244L253.59 216.338L264.378 57.5829L262.878 57.4881Z" fill="#2F2E41" fill-opacity="0.3"/>
<path d="M126.832 57.4864L125.332 57.5807L136.058 216.34L137.558 216.246L126.832 57.4864Z" fill="#2F2E41" fill-opacity="0.3"/>
<path d="M446.799 18.7805C452.293 18.7805 456.747 14.5763 456.747 9.39024C456.747 4.20417 452.293 0 446.799 0C441.305 0 436.851 4.20417 436.851 9.39024C436.851 14.5763 441.305 18.7805 446.799 18.7805Z" fill="#3F3D56" fill-opacity="0.3"/>
</svg>
