<svg width="275" height="200" viewBox="0 0 275 200" fill="none" xmlns="http://www.w3.org/2000/svg">
<path d="M217.263 166.414L173.981 137.362C188.578 123.868 201.855 104.652 214.552 82.9262L257.834 111.978C240.539 130.618 225.888 148.911 217.263 166.414Z" fill="#6C63FF"/>
<path d="M217.275 135.484C224.33 135.484 230.049 130.056 230.049 123.361C230.049 116.665 224.33 111.238 217.275 111.238C210.219 111.238 204.5 116.665 204.5 123.361C204.5 130.056 210.219 135.484 217.275 135.484Z" fill="white"/>
<path d="M158.824 96.7639H149.931C149.618 96.7639 149.318 96.8817 149.097 97.0916C148.876 97.3014 148.752 97.586 148.752 97.8828V101.587C148.752 101.884 148.876 102.169 149.097 102.379C149.318 102.588 149.618 102.706 149.931 102.706H151.405V108.257H157.351V102.706H158.824C159.137 102.706 159.437 102.588 159.658 102.379C159.879 102.169 160.003 101.884 160.003 101.587V97.8828C160.003 97.5861 159.879 97.3014 159.658 97.0916C159.437 96.8817 159.137 96.7639 158.824 96.7639Z" fill="#E6E6E6"/>
<path d="M167.732 130.668C162.285 123.104 159.501 114.099 159.778 104.942C159.783 104.73 159.71 104.524 159.573 104.357C159.436 104.191 159.242 104.075 159.025 104.028V102.428H149.632V104.006H149.503C149.376 104.006 149.251 104.03 149.134 104.076C149.017 104.122 148.911 104.19 148.822 104.275C148.732 104.36 148.662 104.461 148.613 104.572C148.565 104.683 148.54 104.802 148.54 104.922C148.54 104.944 148.541 104.966 148.543 104.989C149.283 114.777 146.784 123.556 141.047 131.324C140.717 131.771 140.548 132.307 140.566 132.852L141.593 163.001C141.618 163.673 141.915 164.311 142.424 164.78C142.932 165.249 143.611 165.515 144.32 165.52H165.565C166.282 165.514 166.968 165.243 167.478 164.764C167.988 164.286 168.28 163.637 168.293 162.956L168.689 133.684C168.701 132.61 168.367 131.557 167.732 130.668Z" fill="#6C63FF"/>
<path opacity="0.2" d="M156.97 97.9706C156.97 98.6109 156.702 99.2249 156.225 99.6777C155.748 100.13 155.101 100.385 154.426 100.385C153.752 100.385 153.105 100.13 152.627 99.6777C152.15 99.2249 151.882 98.6109 151.882 97.9706" fill="black"/>
<path d="M133.449 166.366H80.4361C84.1425 147.35 83.2898 124.386 80.4361 99.6907H133.449C130.672 124.386 129.842 147.35 133.449 166.366Z" fill="#6C63FF"/>
<path d="M107.262 143.333C114.317 143.333 120.037 137.906 120.037 131.21C120.037 124.515 114.317 119.087 107.262 119.087C100.207 119.087 94.4881 124.515 94.4881 131.21C94.4881 137.906 100.207 143.333 107.262 143.333Z" fill="white"/>
<path d="M243.169 170.771H74.7481L39.0832 10.77H8.64581V3.59091H45.2152L80.88 163.591H243.169V170.771Z" fill="#3F3D56"/>
<path d="M99.4291 200C108.382 200 115.64 193.112 115.64 184.615C115.64 176.119 108.382 169.231 99.4291 169.231C90.4759 169.231 83.2178 176.119 83.2178 184.615C83.2178 193.112 90.4759 200 99.4291 200Z" fill="#3F3D56"/>
<path d="M220.474 200C229.427 200 236.685 193.112 236.685 184.615C236.685 176.119 229.427 169.231 220.474 169.231C211.521 169.231 204.263 176.119 204.263 184.615C204.263 193.112 211.521 200 220.474 200Z" fill="#3F3D56"/>
<path d="M240.098 167.39H76.2342L47.3219 31.7959H267.231C268.353 31.796 269.462 32.0268 270.481 32.4724C271.5 32.9179 272.406 33.5677 273.135 34.377C273.864 35.1863 274.4 36.1359 274.706 37.1606C275.012 38.1852 275.08 39.2605 274.906 40.3125L247.772 161.162C247.492 162.901 246.563 164.486 245.155 165.629C243.746 166.772 241.952 167.397 240.098 167.39ZM78.0136 165.339H240.098C241.436 165.344 242.731 164.893 243.748 164.068C244.764 163.243 245.434 162.098 245.636 160.844L272.77 39.9941C272.896 39.2348 272.846 38.4586 272.626 37.719C272.405 36.9794 272.019 36.294 271.492 35.7098C270.966 35.1256 270.312 34.6566 269.577 34.3351C268.841 34.0135 268.041 33.8471 267.231 33.8472H49.9457L78.0136 165.339Z" fill="#3F3D56"/>
<path d="M108.09 166.954L89.1556 32.9872L91.2878 32.6529L110.222 166.62L108.09 166.954Z" fill="#3F3D56"/>
<path d="M213.371 165.927L211.237 165.598L229.618 32.6572L231.753 32.9855L213.371 165.927Z" fill="#3F3D56"/>
<path d="M163.211 32.8213H161.049V166.789H163.211V32.8213Z" fill="#3F3D56"/>
<path d="M58.3632 68.7172L58.358 70.7685L267.589 71.2493L267.595 69.198L58.3632 68.7172Z" fill="#3F3D56"/>
<path d="M252.829 132.085L69.0154 133.277L69.0302 135.328L252.844 134.136L252.829 132.085Z" fill="#3F3D56"/>
<path d="M11.8883 12.3077C18.454 12.3077 23.7766 9.55249 23.7766 6.15383C23.7766 2.75516 18.454 0 11.8883 0C5.32258 0 0 2.75516 0 6.15383C0 9.55249 5.32258 12.3077 11.8883 12.3077Z" fill="#3F3D56"/>
</svg>
