<svg width="374" height="356" viewBox="0 0 374 356" fill="none" xmlns="http://www.w3.org/2000/svg">
<path d="M312.261 312.207L269.664 278.854C284.03 263.362 297.097 241.301 309.593 216.359L352.191 249.712C335.169 271.111 320.75 292.113 312.261 312.207Z" fill="#6C63FF"/>
<path d="M312.273 276.698C319.217 276.698 324.845 270.467 324.845 262.781C324.845 255.094 319.217 248.863 312.273 248.863C305.33 248.863 299.701 255.094 299.701 262.781C299.701 270.467 305.33 276.698 312.273 276.698Z" fill="white"/>
<path d="M106.778 160.011H102.102C101.937 160.011 101.78 160.083 101.663 160.212C101.547 160.341 101.482 160.515 101.482 160.697V162.969C101.482 163.059 101.498 163.148 101.529 163.232C101.56 163.315 101.606 163.391 101.663 163.454C101.721 163.518 101.789 163.569 101.865 163.603C101.94 163.638 102.02 163.655 102.102 163.655H102.877V167.06H106.003V163.655H106.778C106.942 163.655 107.1 163.583 107.216 163.454C107.332 163.326 107.398 163.151 107.398 162.969V160.697C107.398 160.515 107.332 160.341 107.216 160.212C107.1 160.083 106.942 160.011 106.778 160.011Z" fill="#E6E6E6"/>
<path d="M111.461 180.804C108.597 176.166 107.133 170.643 107.279 165.027C107.281 164.897 107.243 164.77 107.171 164.668C107.099 164.566 106.997 164.495 106.883 164.466V163.485H101.945V164.453H101.877C101.81 164.453 101.744 164.468 101.683 164.496C101.621 164.524 101.566 164.565 101.519 164.618C101.472 164.67 101.434 164.732 101.409 164.8C101.384 164.868 101.371 164.941 101.371 165.014C101.371 165.028 101.371 165.042 101.372 165.055C101.828 170.786 100.431 176.51 97.4308 181.207C97.2572 181.481 97.1685 181.81 97.1781 182.144L97.718 200.635C97.731 201.047 97.8874 201.438 98.1545 201.726C98.4216 202.014 98.7788 202.176 99.1516 202.18H110.321C110.698 202.176 111.059 202.01 111.327 201.716C111.595 201.423 111.749 201.025 111.756 200.607L111.964 182.654C111.97 181.995 111.795 181.35 111.461 180.804Z" fill="#6C63FF"/>
<path opacity="0.2" d="M105.803 160.752C105.803 161.144 105.662 161.521 105.411 161.799C105.161 162.076 104.82 162.232 104.466 162.232C104.111 162.232 103.771 162.076 103.52 161.799C103.269 161.521 103.128 161.144 103.128 160.752" fill="black"/>
<path d="M109.286 184.367H99.8567V191.326H109.286V184.367Z" fill="white"/>
<path d="M254.749 232.248H245.996C245.688 232.248 245.393 232.383 245.175 232.624C244.958 232.865 244.835 233.192 244.835 233.533V237.786C244.835 238.126 244.958 238.453 245.175 238.694C245.393 238.935 245.688 239.07 245.996 239.07H247.446V245.443H253.298V239.07H254.749C255.056 239.07 255.352 238.935 255.569 238.694C255.787 238.453 255.909 238.126 255.909 237.786V233.533C255.909 233.192 255.787 232.865 255.569 232.624C255.352 232.383 255.056 232.248 254.749 232.248Z" fill="#E6E6E6"/>
<path d="M263.514 271.17C258.153 262.487 255.413 252.148 255.685 241.635C255.69 241.393 255.619 241.156 255.484 240.964C255.349 240.773 255.158 240.64 254.945 240.587V238.749H245.7V240.561H245.573C245.448 240.561 245.325 240.589 245.21 240.642C245.095 240.695 244.991 240.772 244.903 240.87C244.815 240.967 244.745 241.083 244.697 241.211C244.65 241.338 244.626 241.475 244.626 241.613C244.626 241.638 244.627 241.663 244.628 241.689C245.357 252.927 242.897 263.005 237.251 271.924C236.926 272.436 236.76 273.051 236.778 273.677L237.788 308.29C237.813 309.062 238.105 309.794 238.606 310.333C239.106 310.872 239.774 311.176 240.472 311.182H261.381C262.087 311.176 262.762 310.865 263.264 310.315C263.765 309.765 264.053 309.02 264.066 308.239L264.456 274.633C264.467 273.399 264.139 272.191 263.514 271.17Z" fill="#6C63FF"/>
<path opacity="0.2" d="M252.923 233.632C252.923 234.367 252.659 235.072 252.189 235.592C251.72 236.112 251.083 236.404 250.419 236.404C249.755 236.404 249.118 236.112 248.649 235.592C248.179 235.072 247.915 234.367 247.915 233.632" fill="black"/>
<path d="M260.204 282.667H242.005C241.735 282.667 241.469 282.732 241.224 282.856C240.979 282.981 240.762 283.162 240.586 283.389C240.411 283.615 240.282 283.881 240.208 284.167C240.134 284.454 240.117 284.755 240.158 285.05L242.908 304.84H258.7L262.041 285.117C262.091 284.818 262.082 284.511 262.013 284.216C261.944 283.922 261.817 283.648 261.642 283.415C261.467 283.181 261.247 282.992 260.998 282.863C260.75 282.734 260.479 282.667 260.204 282.667Z" fill="white"/>
<path d="M229.774 312.153H177.599C181.247 290.321 180.408 263.958 177.599 235.606H229.774C227.04 263.958 226.223 290.321 229.774 312.153Z" fill="#6C63FF"/>
<path d="M204 285.71C210.944 285.71 216.572 279.479 216.572 271.792C216.572 264.106 210.944 257.875 204 257.875C197.057 257.875 191.428 264.106 191.428 271.792C191.428 279.479 197.057 285.71 204 285.71Z" fill="white"/>
<path d="M123.858 126.259C124.248 125.184 124.401 124.021 124.305 122.868C124.209 121.714 123.867 120.602 123.306 119.624C122.746 118.645 121.984 117.828 121.082 117.24C120.181 116.652 119.166 116.309 118.121 116.24L99.9355 115.04L97.2578 124.897L115.979 130.588C117.544 131.064 119.211 130.885 120.664 130.087C122.118 129.289 123.254 127.926 123.858 126.259Z" fill="#FFB8B8"/>
<path d="M81.1802 346.856C81.0625 347.273 81.0264 347.713 81.0743 348.147C81.1222 348.581 81.253 348.998 81.458 349.371C81.663 349.745 81.9375 350.066 82.2632 350.312C82.589 350.559 82.9585 350.726 83.3471 350.803L109.403 355.921C110.433 356.13 111.496 355.914 112.392 355.315C113.288 354.716 113.954 353.775 114.267 352.669C114.57 351.612 114.528 350.47 114.147 349.445C113.766 348.419 113.07 347.575 112.183 347.06C106.454 343.804 101.523 339.058 97.8134 333.231C94.9497 336.183 91.7489 335.905 88.35 333.729L84.7449 334.228L81.1802 346.856Z" fill="#2F2E41"/>
<path d="M111.783 170.804C112.523 169.985 113.077 168.983 113.399 167.881C113.721 166.778 113.801 165.607 113.634 164.463C113.466 163.32 113.056 162.237 112.436 161.303C111.816 160.37 111.005 159.613 110.069 159.094L93.7763 150.071L87.8117 157.967L103.001 171.353C104.27 172.471 105.867 173.034 107.487 172.932C109.107 172.831 110.636 172.073 111.783 170.804Z" fill="#FFB8B8"/>
<path d="M337.759 317.209H172.001L136.901 133.519H106.945V125.277H142.936L178.036 308.966H337.759V317.209Z" fill="#3F3D56"/>
<path d="M196.291 350.767C205.102 350.767 212.246 342.859 212.246 333.104C212.246 323.35 205.102 315.442 196.291 315.442C187.479 315.442 180.336 323.35 180.336 333.104C180.336 342.859 187.479 350.767 196.291 350.767Z" fill="#3F3D56"/>
<path d="M315.42 350.767C324.232 350.767 331.375 342.859 331.375 333.104C331.375 323.35 324.232 315.442 315.42 315.442C306.609 315.442 299.466 323.35 299.466 333.104C299.466 342.859 306.609 350.767 315.42 350.767Z" fill="#3F3D56"/>
<path d="M334.736 313.327H173.464L145.009 157.659H361.439C362.544 157.659 363.635 157.924 364.638 158.435C365.641 158.947 366.532 159.693 367.25 160.622C367.968 161.551 368.495 162.641 368.796 163.817C369.097 164.994 369.164 166.228 368.993 167.436L342.289 306.177C342.013 308.173 341.099 309.994 339.713 311.306C338.326 312.618 336.56 313.336 334.736 313.327ZM175.215 310.972H334.736C336.053 310.979 337.327 310.461 338.328 309.513C339.328 308.566 339.988 307.252 340.186 305.812L366.891 167.07C367.015 166.199 366.966 165.308 366.749 164.459C366.532 163.609 366.152 162.823 365.634 162.152C365.115 161.481 364.472 160.943 363.748 160.574C363.024 160.204 362.237 160.013 361.439 160.013H147.591L175.215 310.972Z" fill="#3F3D56"/>
<path d="M204.815 312.829L186.18 159.027L188.279 158.644L206.913 312.446L204.815 312.829Z" fill="#3F3D56"/>
<path d="M308.433 311.649L306.333 311.272L324.424 158.647L326.524 159.024L308.433 311.649Z" fill="#3F3D56"/>
<path d="M259.064 158.836H256.937V312.637H259.064V158.836Z" fill="#3F3D56"/>
<path d="M155.874 200.049L155.869 202.404L361.791 202.956L361.796 200.601L155.874 200.049Z" fill="#3F3D56"/>
<path d="M347.266 272.797L166.358 274.166L166.373 276.521L347.281 275.152L347.266 272.797Z" fill="#3F3D56"/>
<path d="M110.135 135.286C116.597 135.286 121.835 132.123 121.835 128.221C121.835 124.319 116.597 121.156 110.135 121.156C103.673 121.156 98.4346 124.319 98.4346 128.221C98.4346 132.123 103.673 135.286 110.135 135.286Z" fill="#3F3D56"/>
<path d="M311.704 312.505L269.155 279.377C283.505 263.989 296.557 242.078 309.04 217.303L351.589 250.431C334.587 271.687 320.184 292.546 311.704 312.505Z" fill="#6C63FF"/>
<path d="M311.715 277.234C318.651 277.234 324.273 271.045 324.273 263.41C324.273 255.775 318.651 249.586 311.715 249.586C304.779 249.586 299.157 255.775 299.157 263.41C299.157 271.045 304.779 277.234 311.715 277.234Z" fill="white"/>
<path d="M106.449 161.334H101.779C101.614 161.334 101.457 161.405 101.341 161.533C101.225 161.661 101.159 161.835 101.159 162.015V164.272C101.159 164.362 101.175 164.45 101.207 164.533C101.238 164.616 101.283 164.691 101.341 164.754C101.398 164.817 101.467 164.868 101.542 164.902C101.617 164.936 101.697 164.954 101.779 164.954H102.553V168.335H105.675V164.954H106.449C106.614 164.954 106.771 164.882 106.887 164.754C107.003 164.626 107.069 164.453 107.069 164.272V162.015C107.069 161.835 107.003 161.661 106.887 161.533C106.771 161.406 106.614 161.334 106.449 161.334Z" fill="#E6E6E6"/>
<path d="M111.128 181.987C108.268 177.379 106.805 171.894 106.951 166.315C106.953 166.187 106.915 166.061 106.843 165.96C106.771 165.858 106.67 165.787 106.555 165.759V164.784H101.623V165.745H101.555C101.488 165.746 101.422 165.76 101.361 165.788C101.3 165.816 101.244 165.857 101.197 165.909C101.15 165.961 101.113 166.022 101.088 166.09C101.062 166.158 101.049 166.23 101.049 166.303C101.049 166.317 101.05 166.33 101.051 166.344C101.506 172.036 100.111 177.721 97.1139 182.387C96.9405 182.659 96.8519 182.985 96.8614 183.317L97.4008 201.683C97.4138 202.093 97.57 202.481 97.8368 202.767C98.1036 203.053 98.4604 203.215 98.8328 203.218H109.99C110.367 203.214 110.727 203.049 110.995 202.758C111.262 202.466 111.416 202.071 111.423 201.656L111.631 183.824C111.637 183.17 111.462 182.529 111.128 181.987Z" fill="#6C63FF"/>
<path opacity="0.2" d="M105.475 162.07C105.475 162.46 105.335 162.834 105.084 163.11C104.833 163.385 104.494 163.54 104.139 163.54C103.785 163.54 103.445 163.385 103.195 163.11C102.944 162.834 102.803 162.46 102.803 162.07" fill="black"/>
<path d="M108.955 185.526H99.5361V192.438H108.955V185.526Z" fill="white"/>
<path d="M254.251 233.083H245.508C245.201 233.083 244.906 233.218 244.689 233.457C244.471 233.696 244.349 234.021 244.349 234.359V238.584C244.349 238.922 244.471 239.247 244.689 239.486C244.906 239.725 245.201 239.86 245.508 239.86H246.957V246.189H252.802V239.86H254.251C254.559 239.86 254.854 239.725 255.071 239.486C255.288 239.247 255.41 238.922 255.41 238.584V234.359C255.41 234.021 255.288 233.696 255.071 233.457C254.854 233.218 254.559 233.083 254.251 233.083Z" fill="#E6E6E6"/>
<path d="M263.009 271.743C257.654 263.119 254.917 252.85 255.189 242.408C255.194 242.167 255.123 241.931 254.988 241.742C254.853 241.552 254.663 241.419 254.449 241.366V239.541H245.215V241.341H245.088C244.964 241.341 244.841 241.368 244.726 241.421C244.611 241.474 244.506 241.551 244.419 241.648C244.331 241.745 244.261 241.86 244.214 241.986C244.166 242.113 244.142 242.248 244.142 242.385C244.142 242.411 244.143 242.436 244.145 242.461C244.872 253.624 242.416 263.634 236.775 272.492C236.451 273.001 236.285 273.612 236.303 274.234L237.312 308.613C237.337 309.38 237.629 310.107 238.129 310.642C238.628 311.177 239.296 311.48 239.993 311.486H260.878C261.583 311.479 262.258 311.17 262.759 310.624C263.26 310.078 263.548 309.339 263.56 308.563L263.95 275.183C263.961 273.958 263.633 272.758 263.009 271.743Z" fill="#6C63FF"/>
<path opacity="0.2" d="M252.43 234.459C252.43 235.189 252.167 235.89 251.698 236.406C251.229 236.922 250.593 237.212 249.929 237.212C249.266 237.212 248.63 236.922 248.161 236.406C247.692 235.89 247.429 235.189 247.429 234.459" fill="black"/>
<path d="M259.702 283.163H241.523C241.254 283.163 240.988 283.227 240.743 283.35C240.499 283.474 240.282 283.655 240.106 283.879C239.931 284.104 239.802 284.368 239.728 284.653C239.654 284.938 239.637 285.237 239.678 285.53L242.425 305.186H258.2L261.536 285.596C261.587 285.299 261.577 284.994 261.509 284.702C261.44 284.409 261.313 284.138 261.138 283.905C260.963 283.673 260.744 283.486 260.495 283.358C260.247 283.229 259.976 283.163 259.702 283.163Z" fill="white"/>
<path d="M229.308 312.449H177.192C180.836 290.764 179.997 264.579 177.192 236.418H229.308C226.577 264.579 225.761 290.764 229.308 312.449Z" fill="#6C63FF"/>
<path d="M203.563 286.185C210.498 286.185 216.121 279.996 216.121 272.361C216.121 264.727 210.498 258.538 203.563 258.538C196.627 258.538 191.004 264.727 191.004 272.361C191.004 279.996 196.627 286.185 203.563 286.185Z" fill="white"/>
<path d="M16.1392 73.1685L27.8388 71.9976L35.2844 52.0943L21.9893 43.8983L16.1392 73.1685Z" fill="#FFB8B8"/>
<path d="M123.511 127.81C123.9 126.741 124.053 125.587 123.958 124.441C123.862 123.295 123.52 122.191 122.96 121.219C122.401 120.247 121.639 119.436 120.739 118.851C119.838 118.267 118.824 117.927 117.781 117.858L99.6155 116.666L96.9409 126.456L115.641 132.11C117.204 132.582 118.87 132.405 120.321 131.612C121.773 130.819 122.908 129.465 123.511 127.81Z" fill="#FFB8B8"/>
<path d="M104.006 132.274L103.806 113.903L63.4567 106.815L32.3721 67.5714C30.7548 65.5295 28.52 64.2022 26.0818 63.8351C23.6435 63.4681 21.167 64.0863 19.1111 65.5752C17.8664 66.4767 16.8166 67.6682 16.0362 69.0654C15.2557 70.4626 14.7635 72.0314 14.5944 73.661C14.4254 75.2906 14.5835 76.9412 15.0577 78.4962C15.5319 80.0511 16.3105 81.4724 17.3386 82.6597L42.9831 117.4L104.006 132.274Z" fill="#575A89"/>
<path d="M7.09848 338.943H17.7346L44.1163 207.644L71.4471 248.205L87.4013 336.016H97.5056L95.3784 241.766L59.7474 141.076H24.6481C15.0564 160.184 7.53207 179.882 16.1392 200.202L7.09848 338.943Z" fill="#2F2E41"/>
<path d="M80.8811 346.919C80.7635 347.333 80.7274 347.77 80.7753 348.201C80.8231 348.632 80.9537 349.046 81.1585 349.417C81.3633 349.788 81.6375 350.107 81.9629 350.352C82.2882 350.597 82.6573 350.763 83.0455 350.839L109.072 355.923C110.101 356.13 111.163 355.916 112.057 355.321C112.952 354.725 113.618 353.79 113.93 352.692C114.234 351.642 114.191 350.508 113.811 349.49C113.43 348.471 112.735 347.633 111.849 347.122C106.126 343.887 101.201 339.174 97.4955 333.385C94.635 336.317 91.4378 336.041 88.0428 333.881L84.4417 334.376L80.8811 346.919Z" fill="#2F2E41"/>
<path d="M2.17383 346.919C2.05623 347.333 2.02014 347.77 2.06797 348.201C2.11581 348.632 2.24646 349.046 2.45124 349.417C2.65602 349.788 2.93023 350.107 3.2556 350.352C3.58098 350.597 3.95005 350.763 4.33825 350.839L30.3651 355.923C31.3935 356.13 32.4553 355.916 33.3501 355.321C34.245 354.725 34.9112 353.79 35.223 352.692C35.5264 351.642 35.484 350.508 35.1033 349.49C34.7227 348.471 34.0281 347.633 33.1416 347.122C27.4189 343.887 22.4938 339.174 18.7883 333.385C15.9277 336.317 12.7306 336.041 9.33553 333.881L5.73449 334.376L2.17383 346.919Z" fill="#2F2E41"/>
<path d="M35.5501 59.4117C43.7739 59.4117 50.4407 52.073 50.4407 43.0203C50.4407 33.9676 43.7739 26.6289 35.5501 26.6289C27.3262 26.6289 20.6594 33.9676 20.6594 43.0203C20.6594 52.073 27.3262 59.4117 35.5501 59.4117Z" fill="#FFB8B8"/>
<path d="M22.255 145.466L61.0768 144.296L49.6757 104.796C56.761 92.2931 49.6302 79.8025 39.5387 67.3146L31.5616 61.4606L18.7982 60.2897C13.2721 66.7988 10.2485 75.4091 10.3605 84.3173C10.6132 103.393 13.6816 124.158 22.255 145.466Z" fill="#575A89"/>
<path d="M111.45 172.054C112.189 171.24 112.742 170.245 113.063 169.15C113.385 168.055 113.465 166.892 113.298 165.756C113.131 164.62 112.721 163.544 112.102 162.617C111.483 161.69 110.672 160.938 109.738 160.423L93.4628 151.46L87.5049 159.303L102.677 172.599C103.945 173.71 105.54 174.268 107.158 174.168C108.776 174.067 110.304 173.315 111.45 172.054Z" fill="#FFB8B8"/>
<path d="M91.921 167.712L98.3027 150.735L63.7392 126.747L49.1854 77.2056C48.4282 74.628 46.848 72.4399 44.7375 71.0466C42.627 69.6534 40.1293 69.1493 37.707 69.6279C36.2404 69.9177 34.8496 70.5585 33.6327 71.5051C32.4159 72.4516 31.4028 73.6809 30.6649 75.1059C29.9271 76.5309 29.4826 78.1169 29.3629 79.7518C29.2431 81.3867 29.4511 83.0306 29.972 84.5673L41.1337 127.612L91.921 167.712Z" fill="#575A89"/>
<path d="M11.087 36.5807C11.087 42.9587 14.8498 52.8359 19.5959 57.0699C22.7893 59.9187 27.0095 59.7987 28.6366 55.8991C30.3058 51.8987 36.0595 42.4957 46.1862 36.5807C59.6859 28.6956 41.3988 15.2053 28.6366 17.2623C19.0465 18.8081 11.087 25.9115 11.087 36.5807Z" fill="#2F2E41"/>
<path d="M20.1277 27.7996C26.0018 27.7996 30.7638 22.5577 30.7638 16.0915C30.7638 9.62532 26.0018 4.38342 20.1277 4.38342C14.2536 4.38342 9.49163 9.62532 9.49163 16.0915C9.49163 22.5577 14.2536 27.7996 20.1277 27.7996Z" fill="#2F2E41"/>
<path d="M32.3593 11.9937C32.3583 9.04198 31.3438 6.19976 29.5193 4.0367C27.6947 1.87365 25.1949 0.549587 22.5209 0.329913C22.7852 0.308265 23.0493 0.285583 23.3186 0.285583C26.1395 0.285583 28.8448 1.51911 30.8395 3.7148C32.8341 5.9105 33.9547 8.88851 33.9547 11.9937C33.9547 15.0989 32.8341 18.0769 30.8395 20.2725C28.8448 22.4682 26.1395 23.7018 23.3186 23.7018C23.0493 23.7018 22.7852 23.6791 22.5209 23.6574C25.1949 23.4378 27.6947 22.1137 29.5192 19.9507C31.3438 17.7876 32.3583 14.9454 32.3593 11.9937Z" fill="#2F2E41"/>
<path d="M35.8156 48.8744C37.1373 48.8744 38.2087 47.3018 38.2087 45.3619C38.2087 43.4221 37.1373 41.8495 35.8156 41.8495C34.4939 41.8495 33.4225 43.4221 33.4225 45.3619C33.4225 47.3018 34.4939 48.8744 35.8156 48.8744Z" fill="#FFB8B8"/>
<path d="M337.17 317.471H171.599L136.538 135.021H106.616V126.835H142.566L177.627 309.284H337.17V317.471Z" fill="#3F3D56"/>
<path d="M195.863 350.803C204.665 350.803 211.8 342.948 211.8 333.259C211.8 323.57 204.665 315.716 195.863 315.716C187.061 315.716 179.926 323.57 179.926 333.259C179.926 342.948 187.061 350.803 195.863 350.803Z" fill="#3F3D56"/>
<path d="M314.86 350.803C323.662 350.803 330.797 342.948 330.797 333.259C330.797 323.57 323.662 315.716 314.86 315.716C306.059 315.716 298.923 323.57 298.923 333.259C298.923 342.948 306.059 350.803 314.86 350.803Z" fill="#3F3D56"/>
<path d="M334.151 313.616H173.061L144.638 158.997H360.825C361.928 158.997 363.018 159.26 364.02 159.768C365.022 160.277 365.912 161.018 366.629 161.94C367.346 162.863 367.873 163.946 368.173 165.114C368.474 166.283 368.541 167.509 368.37 168.709L341.696 306.515C341.42 308.497 340.507 310.305 339.122 311.609C337.738 312.912 335.974 313.625 334.151 313.616ZM174.81 311.277H334.151C335.466 311.283 336.74 310.769 337.739 309.828C338.738 308.887 339.397 307.582 339.596 306.151L366.27 168.346C366.393 167.48 366.345 166.595 366.128 165.751C365.912 164.908 365.531 164.126 365.014 163.46C364.496 162.794 363.854 162.259 363.131 161.893C362.408 161.526 361.621 161.336 360.825 161.336H147.217L174.81 311.277Z" fill="#3F3D56"/>
<path d="M204.377 313.122L185.764 160.357L187.86 159.976L206.474 312.741L204.377 313.122Z" fill="#3F3D56"/>
<path d="M307.876 311.949L305.778 311.574L323.848 159.979L325.946 160.353L307.876 311.949Z" fill="#3F3D56"/>
<path d="M258.565 160.167H256.44V312.93H258.565V160.167Z" fill="#3F3D56"/>
<path d="M155.492 201.101L155.487 203.441L361.178 203.989L361.183 201.65L155.492 201.101Z" fill="#3F3D56"/>
<path d="M346.667 273.358L165.963 274.718L165.978 277.057L346.682 275.697L346.667 273.358Z" fill="#3F3D56"/>
<path d="M109.803 136.775C116.258 136.775 121.491 133.633 121.491 129.758C121.491 125.882 116.258 122.741 109.803 122.741C103.349 122.741 98.1163 125.882 98.1163 129.758C98.1163 133.633 103.349 136.775 109.803 136.775Z" fill="#3F3D56"/>
</svg>
