<svg width="378" height="349" viewBox="0 0 378 349" fill="none" xmlns="http://www.w3.org/2000/svg">
<path d="M60.3473 248.297H6.56839C10.3283 226.938 9.46327 201.145 6.56839 173.407H60.3473C57.5294 201.145 56.6874 226.938 60.3473 248.297Z" fill="#E6E6E6"/>
<path d="M320.07 306.156L276.163 273.525C290.972 258.368 304.44 236.785 317.32 212.382L361.227 245.013C343.683 265.95 328.821 286.496 320.07 306.156Z" fill="#6C63FF"/>
<path d="M320.083 271.416C327.24 271.416 333.042 265.319 333.042 257.799C333.042 250.279 327.24 244.183 320.083 244.183C312.926 244.183 307.124 250.279 307.124 257.799C307.124 265.319 312.926 271.416 320.083 271.416Z" fill="white"/>
<path d="M108.27 157.255H103.451C103.281 157.255 103.119 157.325 102.999 157.451C102.879 157.577 102.812 157.748 102.812 157.926V160.149C102.812 160.237 102.828 160.324 102.86 160.406C102.892 160.487 102.939 160.561 102.999 160.624C103.058 160.686 103.129 160.736 103.206 160.769C103.284 160.803 103.367 160.82 103.451 160.82H104.249V164.151H107.472V160.82H108.27C108.44 160.82 108.602 160.75 108.722 160.624C108.842 160.498 108.909 160.327 108.909 160.149V157.926C108.909 157.748 108.842 157.577 108.722 157.451C108.602 157.325 108.44 157.255 108.27 157.255Z" fill="#E6E6E6"/>
<path d="M113.097 177.598C110.146 173.06 108.637 167.656 108.787 162.162C108.789 162.035 108.75 161.911 108.676 161.811C108.602 161.711 108.497 161.642 108.379 161.614V160.653H103.289V161.601H103.219C103.15 161.601 103.082 161.615 103.019 161.643C102.955 161.67 102.898 161.711 102.849 161.762C102.801 161.813 102.763 161.873 102.736 161.94C102.71 162.007 102.697 162.078 102.697 162.15C102.697 162.163 102.697 162.177 102.698 162.19C103.168 167.797 101.729 173.396 98.636 177.992C98.4571 178.26 98.3657 178.582 98.3755 178.909L98.9321 196.999C98.9454 197.402 99.1067 197.785 99.382 198.067C99.6573 198.348 100.025 198.507 100.41 198.51H111.923C112.311 198.507 112.684 198.344 112.96 198.057C113.236 197.77 113.394 197.381 113.401 196.972L113.616 179.408C113.622 178.763 113.441 178.132 113.097 177.598Z" fill="#6C63FF"/>
<path opacity="0.2" d="M107.266 157.98C107.266 158.364 107.12 158.732 106.862 159.004C106.603 159.276 106.253 159.428 105.887 159.428C105.521 159.428 105.171 159.276 104.912 159.004C104.654 158.732 104.509 158.364 104.509 157.98" fill="black"/>
<path d="M110.856 181.084H101.137V187.892H110.856V181.084Z" fill="white"/>
<path d="M260.79 227.928H251.768C251.451 227.928 251.147 228.06 250.922 228.296C250.698 228.532 250.572 228.851 250.572 229.185V233.346C250.572 233.679 250.698 233.999 250.922 234.234C251.147 234.47 251.451 234.602 251.768 234.602H253.263V240.837H259.295V234.602H260.79C261.107 234.602 261.411 234.47 261.636 234.234C261.86 233.999 261.986 233.679 261.986 233.346V229.185C261.986 228.851 261.86 228.532 261.636 228.296C261.411 228.06 261.107 227.928 260.79 227.928Z" fill="#E6E6E6"/>
<path d="M269.825 266.007C264.299 257.512 261.475 247.397 261.755 237.112C261.76 236.874 261.687 236.642 261.548 236.455C261.409 236.268 261.212 236.138 260.992 236.086V234.288H251.463V236.061H251.332C251.204 236.061 251.077 236.088 250.958 236.14C250.84 236.191 250.732 236.267 250.641 236.363C250.551 236.458 250.479 236.572 250.43 236.696C250.381 236.821 250.356 236.955 250.356 237.089C250.356 237.114 250.357 237.139 250.358 237.164C251.109 248.159 248.574 258.019 242.754 266.744C242.419 267.246 242.248 267.848 242.266 268.46L243.308 302.323C243.333 303.079 243.635 303.795 244.15 304.322C244.666 304.849 245.355 305.147 246.074 305.153H267.626C268.353 305.146 269.05 304.842 269.567 304.304C270.084 303.766 270.38 303.038 270.394 302.274L270.795 269.395C270.807 268.188 270.468 267.006 269.825 266.007Z" fill="#6C63FF"/>
<path opacity="0.2" d="M258.908 229.282C258.908 230.001 258.636 230.691 258.152 231.199C257.668 231.708 257.011 231.993 256.327 231.993C255.643 231.993 254.986 231.708 254.502 231.199C254.018 230.691 253.746 230.001 253.746 229.282" fill="black"/>
<path d="M266.413 277.255H247.654C247.377 277.255 247.102 277.318 246.85 277.44C246.598 277.562 246.373 277.74 246.193 277.961C246.012 278.182 245.879 278.442 245.802 278.723C245.726 279.003 245.708 279.298 245.751 279.586L248.585 298.947H264.863L268.306 279.652C268.358 279.359 268.348 279.059 268.277 278.771C268.206 278.483 268.076 278.215 267.895 277.986C267.714 277.758 267.488 277.573 267.232 277.447C266.976 277.321 266.696 277.255 266.413 277.255Z" fill="white"/>
<path d="M235.048 306.103H181.269C185.029 284.743 184.164 258.951 181.269 231.213H235.048C232.23 258.951 231.388 284.743 235.048 306.103Z" fill="#6C63FF"/>
<path d="M208.481 280.232C215.638 280.232 221.44 274.136 221.44 266.616C221.44 259.096 215.638 252.999 208.481 252.999C201.324 252.999 195.523 259.096 195.523 266.616C195.523 274.136 201.324 280.232 208.481 280.232Z" fill="white"/>
<path d="M125.876 124.234C126.277 123.182 126.435 122.045 126.336 120.916C126.237 119.787 125.884 118.7 125.307 117.742C124.729 116.785 123.944 115.986 123.015 115.41C122.085 114.835 121.039 114.499 119.963 114.432L101.218 113.257L98.4577 122.901L117.755 128.469C119.367 128.935 121.086 128.76 122.584 127.979C124.082 127.198 125.254 125.865 125.876 124.234Z" fill="#FFB8B8"/>
<path d="M81.8859 340.054C81.7645 340.462 81.7273 340.893 81.7767 341.317C81.826 341.741 81.9608 342.15 82.1721 342.515C82.3835 342.88 82.6664 343.194 83.0022 343.436C83.3379 343.677 83.7188 343.84 84.1194 343.915L110.976 348.923C112.038 349.127 113.133 348.916 114.057 348.33C114.98 347.744 115.668 346.823 115.989 345.741C116.302 344.707 116.259 343.59 115.866 342.587C115.473 341.583 114.756 340.757 113.842 340.254C107.936 337.068 102.854 332.425 99.0303 326.724C96.0786 329.612 92.7794 329.34 89.276 327.212L85.5601 327.7L81.8859 340.054Z" fill="#2F2E41"/>
<path d="M113.43 167.814C114.193 167.013 114.763 166.033 115.095 164.954C115.427 163.876 115.51 162.73 115.337 161.611C115.164 160.492 114.741 159.432 114.103 158.519C113.464 157.606 112.628 156.865 111.663 156.358L94.8691 147.53L88.7212 155.255L104.377 168.351C105.686 169.446 107.332 169.996 109.001 169.897C110.671 169.797 112.247 169.056 113.43 167.814Z" fill="#FFB8B8"/>
<path d="M346.352 311.049H175.499L139.319 131.337H108.442V123.273H145.54L181.72 302.985H346.352V311.049Z" fill="#3F3D56"/>
<path d="M200.535 343.88C209.618 343.88 216.98 336.144 216.98 326.6C216.98 317.057 209.618 309.32 200.535 309.32C191.453 309.32 184.09 317.057 184.09 326.6C184.09 336.144 191.453 343.88 200.535 343.88Z" fill="#3F3D56"/>
<path d="M323.327 343.88C332.409 343.88 339.772 336.144 339.772 326.6C339.772 317.057 332.409 309.32 323.327 309.32C314.244 309.32 306.881 317.057 306.881 326.6C306.881 336.144 314.244 343.88 323.327 343.88Z" fill="#3F3D56"/>
<path d="M343.236 307.251H177.007L147.677 154.953H370.761C371.899 154.953 373.024 155.213 374.058 155.713C375.091 156.214 376.01 156.943 376.75 157.852C377.49 158.761 378.033 159.828 378.344 160.979C378.654 162.13 378.723 163.338 378.546 164.519L351.021 300.256C350.737 302.209 349.795 303.99 348.366 305.274C346.937 306.558 345.117 307.26 343.236 307.251ZM178.812 304.947H343.236C344.593 304.953 345.907 304.447 346.938 303.52C347.97 302.593 348.65 301.308 348.854 299.898L376.379 164.161C376.507 163.309 376.457 162.437 376.234 161.606C376.01 160.775 375.618 160.006 375.084 159.349C374.55 158.693 373.887 158.166 373.14 157.805C372.394 157.444 371.582 157.257 370.761 157.257H150.338L178.812 304.947Z" fill="#3F3D56"/>
<path d="M209.321 306.764L190.113 156.293L192.276 155.917L211.484 306.389L209.321 306.764Z" fill="#3F3D56"/>
<path d="M316.125 305.609L313.96 305.24L332.607 155.92L334.772 156.289L316.125 305.609Z" fill="#3F3D56"/>
<path d="M265.238 156.105H263.045V306.576H265.238V156.105Z" fill="#3F3D56"/>
<path d="M158.876 196.426L158.871 198.73L371.123 199.27L371.128 196.966L158.876 196.426Z" fill="#3F3D56"/>
<path d="M356.152 267.598L169.682 268.938L169.697 271.242L356.167 269.902L356.152 267.598Z" fill="#3F3D56"/>
<path d="M111.731 133.065C118.391 133.065 123.79 129.971 123.79 126.153C123.79 122.336 118.391 119.241 111.731 119.241C105.07 119.241 99.6706 122.336 99.6706 126.153C99.6706 129.971 105.07 133.065 111.731 133.065Z" fill="#3F3D56"/>
<path d="M319.496 306.447L275.639 274.036C290.431 258.981 303.884 237.545 316.75 213.307L360.607 245.717C343.082 266.512 328.237 286.92 319.496 306.447Z" fill="#6C63FF"/>
<path d="M319.507 271.939C326.656 271.939 332.452 265.884 332.452 258.415C332.452 250.945 326.656 244.89 319.507 244.89C312.359 244.89 306.563 250.945 306.563 258.415C306.563 265.884 312.359 271.939 319.507 271.939Z" fill="white"/>
<path d="M107.932 158.549H103.118C102.948 158.549 102.786 158.619 102.666 158.744C102.547 158.869 102.479 159.039 102.479 159.216V161.424C102.479 161.511 102.496 161.598 102.528 161.679C102.56 161.76 102.607 161.833 102.666 161.895C102.725 161.957 102.796 162.006 102.873 162.04C102.951 162.073 103.034 162.091 103.118 162.091H103.915V165.399H107.134V162.091H107.932C108.101 162.091 108.263 162.02 108.383 161.895C108.503 161.77 108.57 161.601 108.57 161.424V159.216C108.57 159.039 108.503 158.869 108.383 158.744C108.263 158.619 108.101 158.549 107.932 158.549Z" fill="#E6E6E6"/>
<path d="M112.754 178.755C109.806 174.247 108.299 168.88 108.449 163.423C108.451 163.297 108.412 163.174 108.338 163.075C108.264 162.975 108.159 162.906 108.041 162.878V161.925H102.957V162.865H102.887C102.818 162.865 102.75 162.88 102.687 162.907C102.624 162.935 102.566 162.975 102.518 163.025C102.47 163.076 102.431 163.136 102.405 163.202C102.379 163.269 102.366 163.339 102.366 163.411C102.366 163.424 102.366 163.438 102.367 163.451C102.836 169.02 101.398 174.582 98.3094 179.146C98.1307 179.412 98.0393 179.732 98.0491 180.057L98.6051 198.025C98.6184 198.426 98.7795 198.806 99.0545 199.085C99.3295 199.365 99.6973 199.523 100.081 199.526H111.581C111.969 199.523 112.341 199.361 112.617 199.076C112.893 198.791 113.051 198.404 113.058 197.998L113.272 180.553C113.279 179.912 113.098 179.285 112.754 178.755Z" fill="#6C63FF"/>
<path opacity="0.2" d="M106.928 159.269C106.928 159.651 106.783 160.017 106.525 160.286C106.266 160.556 105.916 160.708 105.551 160.708C105.186 160.708 104.835 160.556 104.577 160.286C104.319 160.017 104.174 159.651 104.174 159.269" fill="black"/>
<path d="M110.514 182.217H100.806V188.98H110.514V182.217Z" fill="white"/>
<path d="M260.277 228.745H251.266C250.949 228.745 250.645 228.876 250.421 229.111C250.197 229.345 250.071 229.662 250.071 229.993V234.126C250.071 234.457 250.197 234.775 250.421 235.009C250.645 235.243 250.949 235.375 251.266 235.375H252.759V241.567H258.784V235.375H260.277C260.594 235.375 260.898 235.243 261.122 235.009C261.346 234.775 261.472 234.457 261.472 234.126V229.993C261.472 229.662 261.346 229.345 261.122 229.111C260.898 228.876 260.594 228.745 260.277 228.745Z" fill="#E6E6E6"/>
<path d="M269.304 266.568C263.785 258.13 260.964 248.083 261.244 237.868C261.249 237.632 261.176 237.402 261.037 237.216C260.898 237.03 260.701 236.9 260.481 236.849V235.063H250.964V236.824H250.833C250.704 236.824 250.577 236.851 250.459 236.902C250.341 236.954 250.233 237.029 250.142 237.124C250.052 237.219 249.98 237.331 249.931 237.455C249.882 237.579 249.857 237.712 249.857 237.846C249.857 237.87 249.858 237.895 249.86 237.92C250.61 248.841 248.078 258.634 242.264 267.3C241.93 267.798 241.759 268.396 241.777 269.004L242.818 302.639C242.843 303.39 243.144 304.101 243.659 304.624C244.174 305.148 244.862 305.444 245.581 305.45H267.108C267.835 305.444 268.53 305.141 269.047 304.607C269.563 304.073 269.859 303.349 269.873 302.59L270.274 269.933C270.286 268.734 269.947 267.561 269.304 266.568Z" fill="#6C63FF"/>
<path opacity="0.2" d="M258.4 230.091C258.4 230.805 258.129 231.491 257.645 231.996C257.162 232.501 256.506 232.784 255.823 232.784C255.139 232.784 254.483 232.501 254 231.996C253.517 231.491 253.245 230.805 253.245 230.091" fill="black"/>
<path d="M265.896 277.74H247.158C246.88 277.74 246.606 277.803 246.354 277.924C246.102 278.045 245.878 278.221 245.698 278.441C245.517 278.661 245.384 278.919 245.308 279.198C245.232 279.477 245.214 279.769 245.256 280.056L248.088 299.286H264.347L267.786 280.12C267.838 279.83 267.829 279.531 267.758 279.246C267.687 278.96 267.556 278.694 267.376 278.466C267.195 278.239 266.969 278.056 266.713 277.931C266.457 277.805 266.178 277.74 265.896 277.74Z" fill="white"/>
<path d="M234.567 306.393H180.849C184.605 285.177 183.741 259.558 180.849 232.007H234.567C231.752 259.558 230.911 285.177 234.567 306.393Z" fill="#6C63FF"/>
<path d="M208.03 280.697C215.179 280.697 220.975 274.642 220.975 267.173C220.975 259.703 215.179 253.648 208.03 253.648C200.882 253.648 195.086 259.703 195.086 267.173C195.086 274.642 200.882 280.697 208.03 280.697Z" fill="white"/>
<path d="M14.8454 72.2928L26.9046 71.1473L34.5791 51.675L20.8753 43.6564L14.8454 72.2928Z" fill="#FFB8B8"/>
<path d="M125.518 125.751C125.919 124.706 126.077 123.576 125.978 122.455C125.879 121.334 125.527 120.254 124.95 119.303C124.373 118.352 123.589 117.558 122.66 116.987C121.732 116.415 120.687 116.082 119.612 116.015L100.888 114.848L98.131 124.427L117.406 129.958C119.017 130.42 120.734 130.246 122.23 129.471C123.726 128.695 124.897 127.371 125.518 125.751Z" fill="#FFB8B8"/>
<path d="M105.414 130.119L105.208 112.145L63.6175 105.211L31.5773 66.8169C29.9103 64.8193 27.6068 63.5207 25.0936 63.1616C22.5804 62.8025 20.0278 63.4073 17.9087 64.864C16.6256 65.746 15.5436 66.9116 14.7392 68.2786C13.9347 69.6455 13.4274 71.1804 13.2531 72.7747C13.0789 74.3691 13.2419 75.9839 13.7306 77.5052C14.2194 79.0264 15.0219 80.417 16.0816 81.5785L42.5145 115.567L105.414 130.119Z" fill="#575A89"/>
<path d="M5.52673 332.313H16.4898L43.6825 203.857L71.8535 243.54L88.2982 329.449H98.7131L96.5205 237.24L59.7941 138.73H23.6159C13.7293 157.424 5.97366 176.695 14.8454 196.576L5.52673 332.313Z" fill="#2F2E41"/>
<path d="M81.5775 340.115C81.4563 340.521 81.4192 340.948 81.4685 341.37C81.5178 341.791 81.6524 342.197 81.8635 342.56C82.0746 342.922 82.3572 343.234 82.6926 343.474C83.028 343.714 83.4084 343.876 83.8085 343.95L110.635 348.925C111.695 349.127 112.79 348.918 113.712 348.335C114.635 347.753 115.321 346.838 115.643 345.764C115.955 344.737 115.912 343.627 115.519 342.631C115.127 341.634 114.411 340.814 113.497 340.314C107.599 337.15 102.522 332.538 98.7028 326.875C95.7543 329.744 92.4588 329.474 88.9594 327.36L85.2477 327.844L81.5775 340.115Z" fill="#2F2E41"/>
<path d="M0.450681 340.115C0.329464 340.521 0.292264 340.948 0.34157 341.37C0.390876 341.791 0.525547 342.197 0.736623 342.56C0.947699 342.922 1.23034 343.234 1.56571 343.474C1.90109 343.714 2.2815 343.876 2.68164 343.95L29.5085 348.925C30.5686 349.127 31.663 348.918 32.5854 348.335C33.5078 347.753 34.1944 346.838 34.5158 345.764C34.8285 344.737 34.7848 343.627 34.3925 342.631C34.0001 341.634 33.2842 340.814 32.3705 340.314C26.4718 337.15 21.3953 332.538 17.5759 326.875C14.6274 329.744 11.332 329.474 7.83254 327.36L4.1208 327.844L0.450681 340.115Z" fill="#2F2E41"/>
<path d="M34.8529 58.8339C43.3296 58.8339 50.2013 51.6541 50.2013 42.7974C50.2013 33.9408 43.3296 26.761 34.8529 26.761C26.3763 26.761 19.5045 33.9408 19.5045 42.7974C19.5045 51.6541 26.3763 58.8339 34.8529 58.8339Z" fill="#FFB8B8"/>
<path d="M21.1492 143.025L61.1645 141.88L49.4128 103.236C56.7159 91.0034 49.366 78.7832 38.9642 66.5657L30.7418 60.8384L17.5861 59.693C11.8902 66.0611 8.77357 74.485 8.88902 83.2003C9.1495 101.863 12.3122 122.179 21.1492 143.025Z" fill="#575A89"/>
<path d="M113.086 169.037C113.848 168.241 114.418 167.267 114.749 166.196C115.08 165.125 115.163 163.987 114.991 162.875C114.819 161.764 114.396 160.712 113.758 159.805C113.12 158.897 112.285 158.162 111.321 157.658L94.5461 148.89L88.4051 156.563L104.044 169.57C105.351 170.657 106.995 171.204 108.662 171.105C110.33 171.007 111.904 170.271 113.086 169.037Z" fill="#FFB8B8"/>
<path d="M92.9568 164.789L99.5347 148.18L63.9086 124.711L48.9075 76.2425C48.127 73.7208 46.4982 71.5801 44.3228 70.2169C42.1474 68.8538 39.5729 68.3607 37.0762 68.8289C35.5646 69.1124 34.1309 69.7393 32.8767 70.6654C31.6224 71.5915 30.5781 72.7941 29.8176 74.1883C29.0572 75.5824 28.599 77.1341 28.4756 78.7336C28.3521 80.3331 28.5665 81.9414 29.1034 83.4448L40.6083 125.557L92.9568 164.789Z" fill="#575A89"/>
<path d="M9.63791 36.4973C9.63791 42.7372 13.5164 52.4005 18.4084 56.5428C21.6999 59.3299 26.0498 59.2126 27.727 55.3974C29.4475 51.4836 35.378 42.2842 45.8161 36.4973C59.7308 28.7829 40.8815 15.5848 27.727 17.5972C17.8421 19.1095 9.63791 26.0591 9.63791 36.4973Z" fill="#2F2E41"/>
<path d="M18.9565 27.9064C25.0112 27.9064 29.9195 22.778 29.9195 16.4518C29.9195 10.1256 25.0112 4.99722 18.9565 4.99722C12.9018 4.99722 7.99344 10.1256 7.99344 16.4518C7.99344 22.778 12.9018 27.9064 18.9565 27.9064Z" fill="#2F2E41"/>
<path d="M31.5641 12.4427C31.563 9.5549 30.5174 6.77423 28.6368 4.65801C26.7561 2.54179 24.1795 1.2464 21.4232 1.03148C21.6956 1.0103 21.9679 0.988113 22.2455 0.988113C25.1531 0.988113 27.9416 2.19493 29.9976 4.34308C32.0535 6.49123 33.2086 9.40475 33.2086 12.4427C33.2086 15.4806 32.0535 18.3941 29.9976 20.5423C27.9416 22.6904 25.1531 23.8973 22.2455 23.8973C21.9679 23.8973 21.6956 23.8751 21.4232 23.8539C24.1795 23.639 26.7561 22.3436 28.6367 20.2274C30.5174 18.1111 31.563 15.3305 31.5641 12.4427Z" fill="#2F2E41"/>
<path d="M35.1266 48.5248C36.4889 48.5248 37.5933 46.9863 37.5933 45.0884C37.5933 43.1905 36.4889 41.652 35.1266 41.652C33.7643 41.652 32.6599 43.1905 32.6599 45.0884C32.6599 46.9863 33.7643 48.5248 35.1266 48.5248Z" fill="#FFB8B8"/>
<path d="M345.745 311.305H175.085L138.945 132.806H108.103V124.797H145.159L181.298 303.296H345.745V311.305Z" fill="#3F3D56"/>
<path d="M200.094 343.915C209.166 343.915 216.521 336.231 216.521 326.752C216.521 317.273 209.166 309.588 200.094 309.588C191.022 309.588 183.667 317.273 183.667 326.752C183.667 336.231 191.022 343.915 200.094 343.915Z" fill="#3F3D56"/>
<path d="M322.749 343.915C331.822 343.915 339.176 336.231 339.176 326.752C339.176 317.273 331.822 309.588 322.749 309.588C313.677 309.588 306.323 317.273 306.323 326.752C306.323 336.231 313.677 343.915 322.749 343.915Z" fill="#3F3D56"/>
<path d="M342.634 307.534H176.591L147.294 156.263H370.127C371.264 156.263 372.387 156.521 373.42 157.018C374.453 157.515 375.37 158.24 376.109 159.143C376.848 160.045 377.391 161.105 377.701 162.248C378.011 163.391 378.08 164.591 377.904 165.764L350.41 300.586C350.126 302.526 349.185 304.295 347.757 305.57C346.33 306.845 344.512 307.542 342.634 307.534ZM178.394 305.246H342.634C343.989 305.252 345.301 304.749 346.331 303.828C347.362 302.908 348.041 301.631 348.245 300.231L375.739 165.409C375.867 164.562 375.817 163.696 375.594 162.871C375.37 162.046 374.978 161.281 374.445 160.629C373.912 159.978 373.249 159.454 372.504 159.096C371.758 158.737 370.948 158.551 370.127 158.551H149.953L178.394 305.246Z" fill="#3F3D56"/>
<path d="M208.87 307.05L189.684 157.594L191.845 157.221L211.031 306.677L208.87 307.05Z" fill="#3F3D56"/>
<path d="M315.55 305.902L313.388 305.536L332.013 157.224L334.176 157.59L315.55 305.902Z" fill="#3F3D56"/>
<path d="M264.724 157.407H262.534V306.863H264.724V157.407Z" fill="#3F3D56"/>
<path d="M158.482 197.456L158.477 199.744L370.491 200.28L370.496 197.992L158.482 197.456Z" fill="#3F3D56"/>
<path d="M355.534 268.148L169.275 269.478L169.29 271.766L355.549 270.436L355.534 268.148Z" fill="#3F3D56"/>
<path d="M111.389 134.522C118.042 134.522 123.436 131.448 123.436 127.657C123.436 123.865 118.042 120.792 111.389 120.792C104.736 120.792 99.3426 123.865 99.3426 127.657C99.3426 131.448 104.736 134.522 111.389 134.522Z" fill="#3F3D56"/>
</svg>
